<svg xmlns="http://www.w3.org/2000/svg" viewBox="0 0 512 512" width="100%" height="100%">
  <defs>
    <linearGradient id="bg-grad" x1="0%" y1="0%" x2="100%" y2="100%">
      <stop offset="0%" stop-color="#1e1b4b" />
      <stop offset="100%" stop-color="#2e083a" />
    </linearGradient>

    <linearGradient id="clock-grad" x1="0%" y1="0%" x2="100%" y2="100%">
      <stop offset="0%" stop-color="#c084fc" />
      <stop offset="100%" stop-color="#f43f5e" />
    </linearGradient>

    <filter id="glow" x="-20%" y="-20%" width="140%" height="140%">
      <feGaussianBlur stdDeviation="6" result="blur" />
      <feComposite in="SourceGraphic" in2="blur" operator="over" />
    </filter>
  </defs>

  <rect x="32" y="32" width="448" height="448" rx="108" fill="url(#bg-grad)" stroke="#4c1d95" stroke-width="4" />

  <path d="M120 160 C100 110, 160 70, 190 105 Z" fill="url(#clock-grad)" opacity="0.85" />
  <path d="M392 160 C412 110, 352 70, 322 105 Z" fill="url(#clock-grad)" opacity="0.85" />
  
  <rect x="135" y="400" width="30" height="50" rx="15" transform="rotate(25 150 425)" fill="#6b21a8" />
  <rect x="347" y="400" width="30" height="50" rx="15" transform="rotate(-25 362 425)" fill="#6b21a8" />

  <circle cx="256" cy="270" r="145" fill="none" stroke="url(#clock-grad)" stroke-width="22" filter="url(#glow)" />
  <circle cx="256" cy="270" r="125" fill="#110e2e" />

  <circle cx="256" cy="170" r="8" fill="#f43f5e" filter="url(#glow)" /> <circle cx="356" cy="270" r="7" fill="#c084fc" />                     <circle cx="256" cy="370" r="7" fill="#c084fc" />                     <circle cx="156" cy="270" r="7" fill="#c084fc" />                     <path d="M256 270 L256 210" stroke="#ffffff" stroke-width="10" stroke-linecap="round" />
  <path d="M256 270 L320 270" stroke="#ffffff" stroke-width="8" stroke-linecap="round" />

  <circle cx="256" cy="270" r="12" fill="#f43f5e" filter="url(#glow)" />
  <circle cx="256" cy="270" r="5" fill="#ffffff" />
</svg>
